<svg width="152" height="152" viewBox="0 0 152 152" fill="none" xmlns="http://www.w3.org/2000/svg">
<mask id="mask0_197_24260" style="mask-type:alpha" maskUnits="userSpaceOnUse" x="0" y="0" width="152" height="152">
<path d="M141.697 38.1045C141.671 38.0531 141.671 37.9913 141.64 37.9398C141.578 37.8318 141.47 37.77 141.398 37.6671C140.075 35.5055 138.259 33.6424 135.999 32.3351L83.5497 2.05737C78.7942 -0.685792 72.8806 -0.685792 68.1148 2.05737L15.6653 32.3351C13.4059 33.6424 11.5943 35.5055 10.2716 37.6671C10.1995 37.77 10.0915 37.8318 10.0297 37.9398C9.99883 37.9913 10.004 38.0479 9.97309 38.1045C8.67614 40.3897 7.94531 43.0042 7.94531 45.7113V106.272C7.94531 111.769 10.9046 116.89 15.6653 119.648L68.1097 149.931C70.472 151.29 73.1174 151.969 75.7628 151.985C75.7885 151.985 75.8091 152 75.8348 152C75.8606 152 75.8811 151.985 75.9069 151.985C78.5523 151.974 81.1976 151.295 83.5548 149.931L136.004 119.648C140.765 116.895 143.724 111.774 143.724 106.272V45.7113C143.724 43.0042 142.993 40.3948 141.697 38.1045ZM130.858 110.729L80.9815 139.525V121.99C80.9815 119.144 78.6758 116.843 75.8348 116.843C72.9939 116.843 70.6882 119.144 70.6882 121.99V139.53L20.8171 110.734C19.2268 109.818 18.2438 108.109 18.2438 106.277V48.6243L41.5118 62.0571C42.325 62.5254 43.2102 62.7467 44.08 62.7467C45.8607 62.7467 47.59 61.8203 48.5421 60.1734C49.9626 57.7081 49.1185 54.5635 46.6584 53.1431L23.4367 39.736L73.2563 10.9714C74.0541 10.5133 74.9445 10.2869 75.8348 10.2869C76.7252 10.2869 77.6156 10.5133 78.4081 10.9714L128.233 39.736L105.016 53.1379C102.556 54.5584 101.712 57.7081 103.133 60.1682C104.09 61.8152 105.814 62.7416 107.595 62.7416C108.465 62.7416 109.35 62.5203 110.163 62.0519L133.431 48.6192V106.267C133.431 108.104 132.443 109.813 130.858 110.729Z" fill="black"/>
<path d="M105.151 70.3896L97.9717 67.8008C91.4252 65.4385 86.3094 60.333 83.9522 53.7813L81.3686 46.5966C80.5297 44.2754 78.3012 42.7109 75.8308 42.7109C73.3604 42.7109 71.1319 44.2754 70.293 46.6017L67.7094 53.7865C65.3522 60.333 60.2364 65.4436 53.6847 67.806L46.4949 70.3947C44.1789 71.2388 42.6246 73.4621 42.6246 75.9222C42.6246 78.3823 44.1789 80.6057 46.5103 81.4549L53.6847 84.0385C60.2364 86.4008 65.3471 91.5114 67.7094 98.0631L70.293 105.248C71.1319 107.574 73.3553 109.139 75.8308 109.139C78.3063 109.139 80.5297 107.574 81.3686 105.248L83.9522 98.0631C86.3094 91.5166 91.4252 86.4008 97.9717 84.0385L105.167 81.4497C107.483 80.6057 109.037 78.3823 109.037 75.9222C109.037 73.4621 107.483 71.2388 105.151 70.3896ZM75.8308 90.9247C72.5833 84.4193 67.3337 79.1698 60.8283 75.9222C67.3337 72.6747 72.5833 67.4302 75.8308 60.9197C79.0783 67.4251 84.3279 72.6747 90.8333 75.9222C84.3279 79.1698 79.0783 84.4193 75.8308 90.9247Z" fill="black"/>
</mask>
<g mask="url(#mask0_197_24260)">
<rect x="-25.1348" y="-17.3334" width="202.667" height="189.333" fill="url(#paint0_linear_197_24260)"/>
</g>
<defs>
<linearGradient id="paint0_linear_197_24260" x1="148.199" y1="77.3333" x2="6.33398" y2="79.5" gradientUnits="userSpaceOnUse">
<stop stop-color="#0070FF"/>
<stop offset="0.5" stop-color="#197AF7" stop-opacity="0.5"/>
<stop offset="0.75" stop-color="#0371FE" stop-opacity="0.13"/>
<stop offset="1" stop-color="#0070FF" stop-opacity="0"/>
</linearGradient>
</defs>
</svg>
