<svg width="152" height="152" viewBox="0 0 152 152" fill="none" xmlns="http://www.w3.org/2000/svg">
<mask id="mask0_189_24208" style="mask-type:alpha" maskUnits="userSpaceOnUse" x="0" y="0" width="152" height="152">
<g clip-path="url(#clip0_189_24208)">
<path d="M145.091 82.9091C143.018 82.9091 141.636 84.2911 141.636 86.3636V131.273C141.636 133.346 140.254 134.727 138.182 134.727H13.818C11.7453 134.727 10.3636 133.345 10.3636 131.273V86.3636C10.3636 84.2908 8.98166 82.9091 6.90917 82.9091C4.83669 82.9091 3.45473 84.2911 3.45473 86.3636V131.273C3.45473 137.146 7.94556 141.636 13.8183 141.636H138.182C144.055 141.636 148.546 137.146 148.546 131.273V86.3636C148.546 84.2908 147.164 82.9091 145.091 82.9091Z" fill="white"/>
<path d="M141.636 34.5455H10.3636C4.49083 34.5455 0 39.0364 0 44.9091V67.0183C0 71.8544 3.45444 76 7.94556 77.0364L62.182 89.1272V100.182C62.182 102.254 63.5639 103.636 65.6364 103.636H86.3636C88.4364 103.636 89.8181 102.254 89.8181 100.182V89.1272L144.054 77.0364C148.546 76 152 71.8544 152 67.018V44.9088C152 39.0364 147.509 34.5455 141.636 34.5455ZM82.9092 96.7272H69.0911V82.9091H82.9092V96.7272ZM145.091 67.018C145.091 68.7452 144.054 70.1272 142.327 70.4725L89.8181 82.218V79.4544C89.8181 77.3816 88.4361 76 86.3636 76H65.6364C63.5636 76 62.182 77.3819 62.182 79.4544V82.218L9.67278 70.4728C7.94556 70.1272 6.90917 68.7455 6.90917 67.0183V44.9091C6.90917 42.8364 8.29113 41.4547 10.3636 41.4547H141.636C143.709 41.4547 145.091 42.8367 145.091 44.9091V67.018Z" fill="white"/>
<path d="M93.2728 10.3636H58.7272C52.8544 10.3636 48.3636 14.8544 48.3636 20.7272V24.1816C48.3636 26.2544 49.7456 27.6361 51.818 27.6361C53.8905 27.6361 55.2725 26.2541 55.2725 24.1816V20.7272C55.2725 18.6544 56.6544 17.2728 58.7269 17.2728H93.2725C95.3453 17.2728 96.7269 18.6547 96.7269 20.7272V24.1816C96.7269 26.2544 98.1089 27.6361 100.181 27.6361C102.254 27.6361 103.636 26.2541 103.636 24.1816V20.7272C103.636 14.8544 99.1456 10.3636 93.2728 10.3636Z" fill="white"/>
</g>
</mask>
<g mask="url(#mask0_189_24208)">
<rect x="-25.1348" y="-17.3334" width="202.667" height="189.333" fill="url(#paint0_linear_189_24208)"/>
</g>
<defs>
<linearGradient id="paint0_linear_189_24208" x1="148.199" y1="77.3333" x2="1.1749" y2="77.3333" gradientUnits="userSpaceOnUse">
<stop stop-color="#0070FF"/>
<stop offset="0.5" stop-color="#197AF7" stop-opacity="0.5"/>
<stop offset="0.75" stop-color="#0371FE" stop-opacity="0.13"/>
<stop offset="1" stop-color="#0070FF" stop-opacity="0"/>
</linearGradient>
<clipPath id="clip0_189_24208">
<rect width="152" height="152" fill="white"/>
</clipPath>
</defs>
</svg>
