<svg width="170" height="166" viewBox="0 0 170 166" fill="none" xmlns="http://www.w3.org/2000/svg">
<mask id="mask0_201_24492" style="mask-type:alpha" maskUnits="userSpaceOnUse" x="0" y="0" width="170" height="166">
<g clip-path="url(#clip0_201_24492)">
<path fill-rule="evenodd" clip-rule="evenodd" d="M12.4235 64.3297C-3.77495 124.783 5.71019 141.212 66.1636 157.41C126.617 173.609 143.046 164.124 159.244 103.67C175.443 43.2168 165.958 26.7881 105.504 10.5896C45.0507 -5.60883 28.622 3.8763 12.4235 64.3297ZM24.6587 67.6081C20.6838 82.4425 18.5246 93.7447 18.1404 102.646C17.7629 111.399 19.1418 117.016 21.5189 121.132C23.8957 125.249 28.0703 129.252 35.8399 133.302C43.7399 137.419 54.608 141.2 69.442 145.175C84.2764 149.15 95.5785 151.31 104.479 151.693C113.233 152.071 118.85 150.692 122.966 148.315C127.083 145.938 131.086 141.763 135.135 133.994C139.253 126.094 143.034 115.226 147.009 100.392C150.984 85.5578 153.144 74.255 153.527 65.3547C153.905 56.6015 152.526 50.9849 150.149 46.8676C147.772 42.7507 143.597 38.7479 135.828 34.6985C127.928 30.5808 117.06 26.7996 102.226 22.8248C87.3917 18.85 76.0888 16.6906 67.1886 16.3066C58.4353 15.9291 52.8188 17.308 48.7015 19.6849C44.5843 22.0618 40.5818 26.2364 36.5323 34.006C32.4145 41.9058 28.6334 52.7741 24.6587 67.6081Z" fill="black"/>
<path fill-rule="evenodd" clip-rule="evenodd" d="M83.4338 44.0164C80.0552 43.1111 76.5825 45.1161 75.6772 48.4947L72.3988 60.7298L60.1637 57.4514C56.7851 56.5461 53.3124 58.5511 52.4071 61.9297C51.5018 65.3083 53.5068 68.781 56.8854 69.6863L69.1205 72.9647L65.8421 85.1999L53.607 81.9215C50.2284 81.0162 46.7557 83.0211 45.8504 86.3997C44.9451 89.7783 46.95 93.2513 50.3286 94.1566L62.5637 97.435L59.2853 109.67C58.38 113.049 60.385 116.521 63.7636 117.427C67.1422 118.332 70.6149 116.327 71.5202 112.948L74.7986 100.713L87.0337 103.992L83.7553 116.227C82.85 119.605 84.855 123.078 88.2336 123.983C91.6122 124.889 95.0852 122.884 95.9905 119.505L99.2689 107.27L111.504 110.549C114.883 111.454 118.355 109.449 119.261 106.07C120.166 102.692 118.161 99.219 114.782 98.3137L102.547 95.0353L105.826 82.8001L118.061 86.0785C121.439 86.9838 124.912 84.9788 125.817 81.6002C126.723 78.2216 124.718 74.7489 121.339 73.8436L109.104 70.5652L112.382 58.3301C113.288 54.9515 111.283 51.4788 107.904 50.5735C104.525 49.6682 101.053 51.6732 100.147 55.0518L96.8692 67.2866L84.634 64.0082L87.9124 51.7731C88.8177 48.3945 86.8127 44.9218 83.4338 44.0164ZM90.3121 91.7566L93.5905 79.5214L81.3554 76.243L78.077 88.4782L90.3121 91.7566Z" fill="black"/>
</g>
</mask>
<g mask="url(#mask0_201_24492)">
<rect x="-15.1348" y="-9.33337" width="202.667" height="189.333" fill="url(#paint0_linear_201_24492)"/>
</g>
<defs>
<linearGradient id="paint0_linear_201_24492" x1="88.3496" y1="157.349" x2="86.1829" y2="15.4844" gradientUnits="userSpaceOnUse">
<stop stop-color="#00ced1" stop-opacity="0.6"/>
<stop offset="0.5" stop-color="#00ced1" stop-opacity="0.5"/>
<stop offset="0.75" stop-color="#00ced1" stop-opacity="0.53"/>
<stop offset="1" stop-color="#00ced1" stop-opacity="0.1"/>
</linearGradient>
<clipPath id="clip0_201_24492"> 
<rect width="170" height="166" fill="white"/>
</clipPath>
</defs>
</svg>
