<svg width="152" height="152" viewBox="0 0 152 152" fill="none" xmlns="http://www.w3.org/2000/svg">
<mask id="mask0_197_24246" style="mask-type:alpha" maskUnits="userSpaceOnUse" x="0" y="0" width="152" height="152">
<g clip-path="url(#clip0_197_24246)">
<path d="M122.603 122.667H29.0648C12.929 122.647 -0.14665 109.6 -0.166016 93.5V35.1667C-0.14665 19.0663 12.929 6.01932 29.0648 6H122.603C138.739 6.01932 151.815 19.0663 151.834 35.1667V93.5C151.815 109.6 138.739 122.647 122.603 122.667ZM29.0648 17.6667C19.3784 17.6667 11.5263 25.5016 11.5263 35.1667V93.5C11.5263 103.165 19.3784 111 29.0648 111H122.603C132.29 111 140.142 103.165 140.142 93.5V35.1667C140.142 25.5016 132.29 17.6667 122.603 17.6667H29.0648Z" fill="black"/>
<path d="M134.296 146H17.3724C14.1435 146 11.5263 143.388 11.5263 140.167C11.5263 136.945 14.1435 134.333 17.3724 134.333H134.296C137.524 134.333 140.142 136.945 140.142 140.167C140.142 143.388 137.524 146 134.296 146Z" fill="black"/>
<path d="M64.8027 95.0808C58.3574 95.052 53.1393 89.8454 53.1104 83.4142V45.27C53.1104 38.8267 58.3457 33.6033 64.8031 33.6037C66.8555 33.6037 68.8717 34.1429 70.6489 35.1667L103.732 54.23C109.324 57.4518 111.24 64.5871 108.011 70.167C106.985 71.9404 105.51 73.4126 103.732 74.4367L70.6489 93.5C68.8742 94.5325 66.8573 95.0779 64.8027 95.0808ZM97.892 64.3333L64.8027 45.27V83.3967L97.892 64.3333Z" fill="black"/>
</g>
</mask>
<g mask="url(#mask0_197_24246)">
<rect x="-25.1348" y="-17.3334" width="202.667" height="189.333" fill="url(#paint0_linear_197_24246)"/>
</g>
<defs>
<linearGradient id="paint0_linear_197_24246" x1="148.199" y1="77.3333" x2="6.33398" y2="79.5" gradientUnits="userSpaceOnUse">
<stop stop-color="#0070FF"/>
<stop offset="0.5" stop-color="#197AF7" stop-opacity="0.5"/>
<stop offset="0.75" stop-color="#0371FE" stop-opacity="0.13"/>
<stop offset="1" stop-color="#0070FF" stop-opacity="0"/>
</linearGradient>
<clipPath id="clip0_197_24246">
<rect width="152" height="152" fill="white"/>
</clipPath>
</defs>
</svg>
