<svg width="152" height="152" viewBox="0 0 152 152" fill="none" xmlns="http://www.w3.org/2000/svg">
<mask id="mask0_197_24227" style="mask-type:alpha" maskUnits="userSpaceOnUse" x="0" y="0" width="152" height="152">
<g clip-path="url(#clip0_197_24227)">
<path d="M98.0078 99.75C96.7918 99.75 95.5758 99.294 94.6448 98.363C92.7828 96.501 92.7828 93.499 94.6448 91.637L95.7278 90.554C103.556 82.726 106.995 79.154 106.995 76C106.995 72.846 103.537 69.255 95.7278 61.446L94.6448 60.363C92.7828 58.501 92.7828 55.499 94.6448 53.637C96.5068 51.775 99.5088 51.775 101.371 53.637L102.454 54.72C111.517 63.783 116.514 68.78 116.514 76C116.514 83.22 111.517 88.198 102.454 97.28L101.371 98.363C100.44 99.294 99.2238 99.75 98.0078 99.75Z" fill="black"/>
<path d="M67.6458 111.34C67.2468 111.34 66.8288 111.283 66.4108 111.169C63.8838 110.485 62.3638 107.882 63.0478 105.355L79.4448 44.175C80.1288 41.648 82.7318 40.128 85.2588 40.812C87.7858 41.496 89.3058 44.099 88.6218 46.626L72.2248 107.806C71.6548 109.934 69.7358 111.34 67.6458 111.34Z" fill="black"/>
<path d="M53.6618 99.75C52.4458 99.75 51.2298 99.294 50.2988 98.363L49.2158 97.28C40.1528 88.217 35.1558 83.22 35.1558 76C35.1558 68.78 40.1528 63.783 49.2158 54.72L50.2988 53.637C52.1608 51.775 55.1628 51.775 57.0248 53.637C58.8868 55.499 58.8868 58.501 57.0248 60.363L55.9418 61.446C48.1138 69.255 44.6748 72.846 44.6748 76C44.6748 79.154 48.1328 82.745 55.9418 90.554L57.0248 91.637C58.8868 93.499 58.8868 96.501 57.0248 98.363C56.0938 99.294 54.8778 99.75 53.6618 99.75Z" fill="black"/>
<path d="M75.8348 144.077C60.4828 144.077 49.3868 144.077 40.4568 142.88C30.4058 141.531 23.6228 138.605 18.4168 133.418C13.2298 128.231 10.3038 121.429 8.95481 111.378C7.75781 102.448 7.75781 91.352 7.75781 76C7.75781 60.648 7.75781 49.552 8.95481 40.622C10.3038 30.571 13.2298 23.788 18.4168 18.582C23.6038 13.376 30.4058 10.469 40.4568 9.11997C49.3868 7.92297 60.4828 7.92297 75.8348 7.92297C91.1868 7.92297 102.283 7.92297 111.213 9.11997C121.264 10.469 128.047 13.395 133.253 18.582C140.872 26.201 142.886 36.822 143.57 50.426C143.703 53.048 141.689 55.271 139.067 55.404C136.445 55.537 134.222 53.523 134.089 50.901C133.405 37.05 131.353 30.096 126.546 25.289C118.642 17.423 104.335 17.423 75.8348 17.423C47.3348 17.423 33.0278 17.423 25.1428 25.308C17.2578 33.193 17.2578 47.5 17.2578 76C17.2578 104.5 17.2578 118.807 25.1428 126.692C33.0278 134.577 47.3348 134.577 75.8348 134.577C104.335 134.577 118.642 134.577 126.527 126.692C134.412 118.807 134.412 104.5 134.412 76C134.412 73.378 136.54 71.25 139.162 71.25C141.784 71.25 143.912 73.378 143.912 76C143.912 91.352 143.912 102.448 142.715 111.378C141.366 121.429 138.44 128.212 133.253 133.418C128.066 138.605 121.264 141.531 111.213 142.88C102.283 144.077 91.1868 144.077 75.8348 144.077Z" fill="black"/>
</g>
</mask>
<g mask="url(#mask0_197_24227)">
<rect x="-25.1348" y="-17.3334" width="202.667" height="189.333" fill="url(#paint0_linear_197_24227)"/>
</g>
<defs>
<linearGradient id="paint0_linear_197_24227" x1="148.199" y1="77.3333" x2="6.33398" y2="79.5" gradientUnits="userSpaceOnUse">
<stop stop-color="#0070FF"/>
<stop offset="0.5" stop-color="#197AF7" stop-opacity="0.5"/>
<stop offset="0.75" stop-color="#0371FE" stop-opacity="0.13"/>
<stop offset="1" stop-color="#0070FF" stop-opacity="0"/>
</linearGradient>
<clipPath id="clip0_197_24227">
<rect width="152" height="152" fill="white"/>
</clipPath>
</defs>
</svg>
