<svg preserveAspectRatio="none" width="100%" height="100%" overflow="visible" style="display: block;" viewBox="0 0 172.702 35.5852" fill="none" xmlns="http://www.w3.org/2000/svg">
<g id="Group 2">
<g id="Vector">
<path d="M19.5539 11.0531H11.3062V8.52187C11.3062 7.34062 11.2008 6.58828 10.9898 6.26484C10.7789 5.94141 10.4273 5.77969 9.93516 5.77969C9.40078 5.77969 8.99297 5.99766 8.71172 6.43359C8.44453 6.86953 8.31094 7.53047 8.31094 8.41641C8.31094 9.55547 8.46562 10.4133 8.775 10.9898C9.07031 11.5664 9.90703 12.2625 11.2852 13.0781C15.2367 15.4266 17.7258 17.3531 18.7523 18.8578C19.7789 20.3625 20.2922 22.7883 20.2922 26.1352C20.2922 28.568 20.0039 30.3609 19.4273 31.5141C18.8648 32.6672 17.768 33.6375 16.1367 34.425C14.5055 35.1984 12.607 35.5852 10.4414 35.5852C8.06484 35.5852 6.03281 35.1352 4.34531 34.2352C2.67188 33.3352 1.575 32.1891 1.05469 30.7969C0.534375 29.4047 0.274219 27.4289 0.274219 24.8695V22.6336H8.52187V26.7891C8.52187 28.0688 8.63438 28.8914 8.85938 29.257C9.09844 29.6227 9.51328 29.8055 10.1039 29.8055C10.6945 29.8055 11.1305 29.5734 11.4117 29.1094C11.707 28.6453 11.8547 27.9562 11.8547 27.0422C11.8547 25.0312 11.5805 23.7164 11.032 23.0977C10.4695 22.4789 9.08437 21.4453 6.87656 19.9969C4.66875 18.5344 3.20625 17.4727 2.48906 16.8117C1.77188 16.1508 1.17422 15.2367 0.696094 14.0695C0.232031 12.9023 0 11.4117 0 9.59766C0 6.98203 0.330469 5.06953 0.991406 3.86016C1.66641 2.65078 2.74922 1.70859 4.23984 1.03359C5.73047 0.344531 7.53047 0 9.63984 0C11.9461 0 13.9078 0.372656 15.525 1.11797C17.1562 1.86328 18.232 2.80547 18.7523 3.94453C19.2867 5.06953 19.5539 6.98906 19.5539 9.70312V11.0531Z" fill="#B11212"/>
<path d="M42.0187 0.717187L35.543 22.507V34.868H27.3164V22.507L21.0727 0.717187H29.2359C30.5156 7.36875 31.2328 11.8477 31.3875 14.1539C31.8797 10.5117 32.7023 6.03281 33.8555 0.717187H42.0187Z" fill="#B11212"/>
<path d="M63.3867 0.717187V34.868H55.6031L50.9836 19.343V34.868H43.5586V0.717187H50.9836L55.9617 16.0945V0.717187H63.3867Z" fill="#B11212"/>
<path d="M70.133 28.0154V24.2246H82.5746V28.0154H70.133ZM77.9576 0.604967L69.5984 34.868H65.2244L73.5836 0.604967H77.9576ZM78.0548 0.604967L86.414 34.868H82.0886L73.6808 0.604967H78.0548Z" fill="var(--fill-0, white)"/>
<path d="M101.247 34.868L108.877 0.604967H112.717L105.135 34.868H101.247ZM101.101 34.868L93.4713 0.604967H97.3593L104.941 34.868H101.101ZM91.0413 34.868V0.604967H95.4639V34.868H91.0413ZM110.773 34.868V0.604967H115.195V34.868H110.773Z" fill="var(--fill-0, white)"/>
<path d="M122.341 34.868V0.604967H126.763V34.868H122.341Z" fill="var(--fill-0, white)"/>
<path d="M132.617 31.0286L146.76 4.44437H151.425L137.331 31.0286H132.617ZM132.617 34.868V31.0286H151.425V34.868H132.617ZM132.617 4.44437V0.604967H151.425V4.44437H132.617Z" fill="var(--fill-0, white)"/>
<path d="M159.24 34.868V31.0286H172.702V34.868H159.24ZM159.969 19.7534V15.8168H169.786V19.7534H159.969ZM156.761 0.604967H161.184V34.868H156.761V0.604967ZM159.726 0.604967H172.216V4.44437H159.726V0.604967Z" fill="var(--fill-0, white)"/>
</g>
</g>
</svg>
